<svg viewBox="0 0 400 400" xmlns="http://www.w3.org/2000/svg">
  <!-- Background circle (optional, can be removed) -->
  <circle cx="200" cy="200" r="190" fill="white"/>
  
  <!-- Hearts -->
  <path d="M164 90c-8 0-15 3-20 8-5-5-12-8-20-8-15 0-27 12-27 27 0 18 20 33 47 55 27-22 47-37 47-55 0-15-12-27-27-27z" fill="#FF6B8A" stroke="black" stroke-width="3"/>
  <path d="M143 120c-6 0-11 2-15 6-4-4-9-6-15-6-11 0-20 9-20 20 0 13 15 25 35 41 20-16 35-28 35-41 0-11-9-20-20-20z" fill="#FF6B8A" stroke="black" stroke-width="3"/>
  
  <!-- Headphone band -->
  <path d="M170 180c0-40 32-72 72-72s72 32 72 72" fill="none" stroke="black" stroke-width="8" stroke-linecap="round"/>
  
  <!-- Left ear cup -->
  <rect x="155" y="195" width="30" height="70" rx="10" fill="black"/>
  <rect x="165" y="200" width="15" height="60" rx="5" fill="white"/>
  
  <!-- Right ear cup -->
  <rect x="299" y="195" width="30" height="70" rx="10" fill="black"/>
  <rect x="304" y="200" width="15" height="60" rx="5" fill="white"/>
  
  <!-- Center microphone -->
  <ellipse cx="242" cy="230" rx="35" ry="55" fill="#FF6B8A" stroke="black" stroke-width="4"/>
  <circle cx="242" cy="230" r="8" fill="white" stroke="black" stroke-width="2"/>
  <line x1="220" y1="215" x2="264" y2="215" stroke="black" stroke-width="2"/>
  <line x1="220" y1="225" x2="264" y2="225" stroke="black" stroke-width="2"/>
  <line x1="220" y1="235" x2="264" y2="235" stroke="black" stroke-width="2"/>
  <line x1="220" y1="245" x2="264" y2="245" stroke="black" stroke-width="2"/>
  
  <!-- Hands -->
  <!-- Left hand -->
  <path d="M90 220c-5 0-9 4-9 9v30c0 5 4 9 9 9s9-4 9-9v-30c0-5-4-9-9-9z" fill="white" stroke="black" stroke-width="3"/>
  <path d="M105 230c-5 0-9 4-9 9v25c0 5 4 9 9 9s9-4 9-9v-25c0-5-4-9-9-9z" fill="white" stroke="black" stroke-width="3"/>
  <path d="M120 235c-5 0-9 4-9 9v20c0 5 4 9 9 9s9-4 9-9v-20c0-5-4-9-9-9z" fill="white" stroke="black" stroke-width="3"/>
  <path d="M135 240c-5 0-9 4-9 9v15c0 5 4 9 9 9s9-4 9-9v-15c0-5-4-9-9-9z" fill="white" stroke="black" stroke-width="3"/>
  <path d="M85 250c0 30 15 50 30 60s30 15 45 15h15v20h-15c-5 0-10 5-10 10v10h60v-10c0-5-5-10-10-10h-15v-20" fill="white" stroke="black" stroke-width="3"/>
  
  <!-- Right hand -->
  <path d="M394 220c5 0 9 4 9 9v30c0 5-4 9-9 9s-9-4-9-9v-30c0-5 4-9 9-9z" fill="white" stroke="black" stroke-width="3"/>
  <path d="M379 230c5 0 9 4 9 9v25c0 5-4 9-9 9s-9-4-9-9v-25c0-5 4-9 9-9z" fill="white" stroke="black" stroke-width="3"/>
  <path d="M364 235c5 0 9 4 9 9v20c0 5-4 9-9 9s-9-4-9-9v-20c0-5 4-9 9-9z" fill="white" stroke="black" stroke-width="3"/>
  <path d="M349 240c5 0 9 4 9 9v15c0 5-4 9-9 9s-9-4-9-9v-15c0-5 4-9 9-9z" fill="white" stroke="black" stroke-width="3"/>
  <path d="M399 250c0 30-15 50-30 60s-30 15-45 15h-15v20h15c5 0 10 5 10 10v10h-60v-10c0-5 5-10 10-10h15v-20" fill="white" stroke="black" stroke-width="3"/>
  
  <!-- Microphone stand -->
  <rect x="237" y="285" width="10" height="60" fill="black"/>
  <rect x="220" y="365" width="44" height="8" rx="2" fill="#FF6B8A" stroke="black" stroke-width="2"/>
  
  <!-- Text -->
  <text x="200" y="420" font-family="Arial, sans-serif" font-size="48" font-weight="bold" text-anchor="middle" fill="black">日記AI</text>
</svg>